inDegrees=no
num_controls=7
num_derivatives=13
num_iterations=132
num_multipliers=7
num_parameters=0
num_slacks=7
num_states=26
objective=0.477034
objective_accelerations=0.044163
objective_balance=0.003702
objective_effort=0.040522
objective_height=0.382980
objective_ligament=0.005667
solver_duration=1836.231508
status=Solve_Succeeded
success=true
DataType=double
version=3
OpenSimVersion=4.5
endheader
time	/jointset/ground_pelvis/pelvis_tilt/value	/jointset/ground_pelvis/pelvis_tx/value	/jointset/ground_pelvis/pelvis_ty/value	/jointset/hip_l/hip_flexion_l/value	/jointset/hip_l/hip_adduction_l/value	/jointset/hip_l/hip_rotation_l/value	/jointset/back/lumbar_extension/value	/jointset/patellofemoral_l/patellar_flexion_l/value	/jointset/knee_l/knee_flexion_l/value	/jointset/knee_l/knee_adduction_l/value	/jointset/knee_l/knee_rotation_l/value	/jointset/ankle_l/ankle_angle_l/value	/jointset/subtalar_l/subtalar_angle_l/value	/jointset/ground_pelvis/pelvis_tilt/speed	/jointset/ground_pelvis/pelvis_tx/speed	/jointset/ground_pelvis/pelvis_ty/speed	/jointset/hip_l/hip_flexion_l/speed	/jointset/hip_l/hip_adduction_l/speed	/jointset/hip_l/hip_rotation_l/speed	/jointset/back/lumbar_extension/speed	/jointset/patellofemoral_l/patellar_flexion_l/speed	/jointset/knee_l/knee_flexion_l/speed	/jointset/knee_l/knee_adduction_l/speed	/jointset/knee_l/knee_rotation_l/speed	/jointset/ankle_l/ankle_angle_l/speed	/jointset/subtalar_l/subtalar_angle_l/speed	/forceset/tau_hip_flexion_l	/forceset/tau_hip_adduction_l	/forceset/tau_hip_rotation_l	/forceset/tau_knee_flexion_l	/forceset/tau_ankle_angle_l	/forceset/tau_subtalar_angle_l	/forceset/tau_lumbar_extension	lambda_cid13_p0	lambda_cid13_p1	lambda_cid13_p2	lambda_cid13_p3	lambda_cid13_p4	lambda_cid13_p5	lambda_cid14_p0	/jointset/ground_pelvis/pelvis_tilt/accel	/jointset/ground_pelvis/pelvis_tx/accel	/jointset/ground_pelvis/pelvis_ty/accel	/jointset/hip_l/hip_flexion_l/accel	/jointset/hip_l/hip_adduction_l/accel	/jointset/hip_l/hip_rotation_l/accel	/jointset/back/lumbar_extension/accel	/jointset/patellofemoral_l/patellar_flexion_l/accel	/jointset/knee_l/knee_flexion_l/accel	/jointset/knee_l/knee_adduction_l/accel	/jointset/knee_l/knee_rotation_l/accel	/jointset/ankle_l/ankle_angle_l/accel	/jointset/subtalar_l/subtalar_angle_l/accel	gamma_cid13_p0	gamma_cid13_p1	gamma_cid13_p2	gamma_cid13_p3	gamma_cid13_p4	gamma_cid13_p5	gamma_cid14_p0
0	-0.03679922967706995	0.0566671801420075	0.9203420106132182	0.3085816938045678	-0.2956333354175052	-0.3014532859554322	-0.3879492264334186	0.2499269421184842	0.2499269421184919	-0.174532728787923	-0.1743816078570051	-0.0008036623358878681	0.0004430267009231896	0	0	0	0	0	0	0	0	0	0	0	0	0	0.06978961509109734	-0.04688735102373644	-0.01924852168680504	-0.2382759716835497	0.18140773488532	-0.01233730382662447	0.003769297016944679	14.91051322854342	0.1202034066978009	2.527382979380912	12.12093095172658	-621.6293158675975	-74.60887978472059	-23.19178563515439	-0.9991826811836048	-2.072092650529088	-0.9280733388726106	9.341031269085153	-0.8333494014329486	3.301456930419568	-7.298781730153043	9.408114091956691	9.408114091956806	1.295217729158741	-0.1041183960511463	1.590972058133642	-0.353911952307464	2.722727933255379e-09	1.384513163523701e-07	5.983083707091034e-08	-1.418547852639909e-08	1.269433431178309e-07	4.562482132264917e-09	2.477940667180823e-09
0.01	-0.03684541234191265	0.05656540904704293	0.920296665084158	0.309036618557554	-0.2956751281452007	-0.3012873757162964	-0.3883124077611212	0.2503879748917805	0.2503879748917908	-0.1744715919689717	-0.1743831716166868	-0.0007256825793584343	0.0004246481353127585	-0.009190226310294036	-0.02018940718253615	-0.009030029056763046	0.09047576480637677	-0.008312724449721592	0.03304520715529582	-0.07210441088012777	0.09177967211562121	0.09177967211562146	0.01216762915963876	-0.0002860812497971576	0.01561732995783859	-0.003619744803694475	0.06497625488960559	-0.05558947344399277	-0.01876188874878198	-0.2359216753123614	0.177467259966007	-0.00160753065696082	0.00882668739917827	13.93817610058353	-4.286117015696695	3.134641507234721	10.710342469389	-624.5710291119635	-83.45861031815602	-23.1971468273118	-0.8720049271431468	-1.967645817118937	-0.8845807871170421	8.82446532179137	-0.823392246611797	3.285524471334442	-7.086492568253905	8.998860894006263	8.998860894006201	1.168605021633879	0.01315322774208568	1.550324144253431	-0.3576395961148406	-2.979254768913199e-08	1.489417429986597e-07	1.346406862982414e-07	1.974440303427721e-08	-1.875933596103862e-09	-4.224852481985306e-08	-4.748546414841338e-09
0.02	-0.03698210973408796	0.05626668766725294	0.9201621966449226	0.3103810242056856	-0.2957986797733678	-0.3007951190329589	-0.3893806775578854	0.251753997810769	0.2517539978107691	-0.1742905649559548	-0.1743867949454187	-0.0004908873873214971	0.000371745351322524	-0.0181029454682607	-0.03939005696508326	-0.01782458203506023	0.177896179027852	-0.01635178009424497	0.0652692888405893	-0.1410176938127358	0.1809980291368994	0.1809980291368981	0.02397803880997442	-0.0004119138121490973	0.03136308710145793	-0.006904843675964631	0.0601628946881233	-0.06429159586424871	-0.01827525581081622	-0.2335673789411567	0.1735267850466962	0.009122242512704749	0.01388407778141533	13.03834550127808	-8.703857281842886	3.74226346936617	9.189603901556929	-626.4260609276638	-92.21846441135784	-23.21286943389907	-0.9436812507183543	-1.874341170531087	-0.8809781231794377	8.729961152104817	-0.778615640393333	3.137231836419123	-6.660556140649225	8.895851073088046	8.895851073087799	1.223773827298053	-0.0720686585620737	1.616657495289993	-0.2869827660225587	-6.230782331151937e-08	1.594321696449492e-07	2.094505355255725e-07	5.367428459495352e-08	-1.306952103100386e-07	-8.905953177197103e-08	-1.19750334968635e-08
0.03	-0.03720670894931766	0.05578043912068383	0.9199406573328838	0.3125854099749394	-0.2960011856047001	-0.2999854035410888	-0.3911229174229419	0.2539997857305696	0.2539997857305705	-0.173993209735844	-0.1743915866032599	-9.858201197874678e-05	0.0002875289196876084	-0.02676289183472068	-0.05774095091280657	-0.02646987210139862	0.262541447862667	-0.02410342075777236	0.09651416658525827	-0.2070044460733385	0.2677563030079216	0.2677563030079128	0.03541443398820816	-0.0005467751789384999	0.04705828574413081	-0.009904161608354929	0.05457952531795363	-0.05911708448501751	-0.0176606746323633	-0.2295628440883156	0.1705936363157789	0.007393167302371962	0.0189701352773259	11.99306369077401	-7.824631651597731	3.664609166994651	8.958321728626872	-627.7299973494999	-89.62948342025091	-23.23824206908368	-0.8190569262456546	-1.797647419053097	-0.8543198671828564	8.265870904512935	-0.76659447330565	3.094144612198622	-6.503859800329261	8.505330195923678	8.505330195922747	1.091834310026654	0.01578281003201067	1.539996167526129	-0.3013132766597975	-8.467749092334969e-08	1.256546538757867e-07	2.77589697612402e-07	6.989466179364253e-08	-2.164581029964775e-07	-1.374713218910524e-07	-2.323107604441539e-08
0.04	-0.03751628874753105	0.05511424485220599	0.9196330620364171	0.3156230606636156	-0.2962798390814629	-0.2988680334980314	-0.3935122498169153	0.2571010593194426	0.2571010593194428	-0.1735838381745626	-0.1743977313376164	0.0004494843735450305	0.0001743379147663184	-0.0350990620666489	-0.07537920134682759	-0.03503577892059579	0.3445491629112086	-0.03158130918022809	0.1268001990782427	-0.2704361995965083	0.3520951629515185	0.3520951629515046	0.04638130704406617	-0.0006825291149500661	0.06251528913761351	-0.01269975833324601	0.0489961559477875	-0.05394257310578587	-0.0170460934538983	-0.2255583092354736	0.1676604875848615	0.005664092092039412	0.02405619277323821	11.01500945983376	-6.954439349972152	3.585267760688276	8.616587425007692	-628.0380135661541	-86.95379194125184	-23.27242733592953	-0.878926023812218	-1.731812467790446	-0.865101473751193	8.202450394850123	-0.7238651921790192	2.945462786082224	-6.149556393162741	8.411968287602985	8.411968287603198	1.129869402822865	-0.0722471724064751	1.569018445452151	-0.246238524522666	-1.068379707411479e-07	9.096439702589313e-08	3.455913197581902e-07	8.574989457249675e-08	-3.013332351875041e-07	-1.859161178486279e-07	-3.457020220981325e-08
